<?xml version="1.0" encoding="UTF-8"?>
<!DOCTYPE svg PUBLIC "-//W3C//DTD SVG 1.1//EN" "http://www.w3.org/Graphics/SVG/1.1/DTD/svg11.dtd">
<svg xmlns="http://www.w3.org/2000/svg" version="1.1" width="512px" height="512px" style="shape-rendering:geometricPrecision; text-rendering:geometricPrecision; image-rendering:optimizeQuality; fill-rule:evenodd; clip-rule:evenodd" xmlns:xlink="http://www.w3.org/1999/xlink">
<g><path style="opacity:0.969" fill="#5e5e5e" d="M 259.5,48.5 C 250.863,48.9965 242.197,49.9965 233.5,51.5C 218.309,44.072 203.309,36.4053 188.5,28.5C 195.073,25.0187 202.073,23.5187 209.5,24C 226.316,31.9082 242.983,40.0748 259.5,48.5 Z"/></g>
<g><path style="opacity:0.989" fill="#424242" d="M 188.5,28.5 C 203.309,36.4053 218.309,44.072 233.5,51.5C 231.774,53.2279 230.441,55.2279 229.5,57.5C 212.61,49.2211 195.61,41.2211 178.5,33.5C 181.52,31.3233 184.853,29.6566 188.5,28.5 Z"/></g>
<g><path style="opacity:0.994" fill="#616060" d="M 178.5,33.5 C 195.61,41.2211 212.61,49.2211 229.5,57.5C 229.826,61.8839 229.492,66.2172 228.5,70.5C 225.34,72.0267 222.007,72.6933 218.5,72.5C 198.182,63.0079 178.182,53.0079 158.5,42.5C 164.861,38.9893 171.528,35.9893 178.5,33.5 Z"/></g>
<g><path style="opacity:1" fill="#f24235" d="M 158.5,42.5 C 178.182,53.0079 198.182,63.0079 218.5,72.5C 181.593,84.2455 159.76,109.245 153,147.5C 152.34,158.85 152.507,170.183 153.5,181.5C 109.86,159.346 66.1933,137.18 22.5,115C 18.5683,111.244 18.5683,107.411 22.5,103.5C 67.5281,82.6559 112.861,62.3225 158.5,42.5 Z"/></g>
<g><path style="opacity:0.999" fill="#050504" d="M 259.5,48.5 C 263.75,49.2725 268.083,49.7725 272.5,50C 275.494,52.1565 277.494,54.9898 278.5,58.5C 277.515,62.6344 277.182,66.9677 277.5,71.5C 300.465,74.8112 319.465,85.1445 334.5,102.5C 337.174,106.838 339.841,111.172 342.5,115.5C 346.885,123.322 349.885,131.655 351.5,140.5C 353.318,145.349 353.818,150.349 353,155.5C 352.167,157 351,158.167 349.5,159C 330.709,161.754 311.876,164.254 293,166.5C 289.566,166.068 286.9,164.401 285,161.5C 284.037,154.942 281.704,148.942 278,143.5C 277.333,161.833 277.333,180.167 278,198.5C 293.824,203.331 308.991,209.664 323.5,217.5C 327.809,220.802 332.143,224.136 336.5,227.5C 347.426,238.011 354.76,250.677 358.5,265.5C 359.343,269.873 360.343,274.207 361.5,278.5C 362.159,281.455 362.492,284.455 362.5,287.5C 362.5,288.833 362.5,290.167 362.5,291.5C 362.5,295.833 362.5,300.167 362.5,304.5C 360.184,323.777 353.518,341.444 342.5,357.5C 338.205,363.463 333.205,368.796 327.5,373.5C 321.138,378.345 314.471,382.678 307.5,386.5C 297.857,390.715 287.857,393.715 277.5,395.5C 277.5,402.5 277.5,409.5 277.5,416.5C 277.882,421.367 277.215,426.034 275.5,430.5C 273.882,432.316 271.882,433.649 269.5,434.5C 257.771,434.912 246.104,434.412 234.5,433C 233.333,431.833 232.167,430.667 231,429.5C 229.729,424.246 229.229,418.913 229.5,413.5C 229.5,407.833 229.5,402.167 229.5,396.5C 226.193,395.949 222.86,395.616 219.5,395.5C 211.987,393.081 204.653,390.081 197.5,386.5C 186.347,381.011 177.014,373.344 169.5,363.5C 164.353,357.221 159.687,350.554 155.5,343.5C 150.895,331.848 147.395,319.848 145,307.5C 143.994,303.198 144.494,299.198 146.5,295.5C 147.627,294.878 148.627,294.045 149.5,293C 152.365,292.817 155.031,292.317 157.5,291.5C 168.196,290.793 178.862,289.793 189.5,288.5C 194.324,288.008 198.99,287.341 203.5,286.5C 205.5,286.833 207.5,287.167 209.5,287.5C 210.609,287.557 211.609,287.89 212.5,288.5C 214.325,292.826 215.992,297.159 217.5,301.5C 219.527,309.222 223.36,315.889 229,321.5C 229.499,316.511 229.666,311.511 229.5,306.5C 229.5,303.5 229.5,300.5 229.5,297.5C 229.5,292.833 229.5,288.167 229.5,283.5C 229.831,275.804 229.497,268.138 228.5,260.5C 206.726,253.867 188.226,242.2 173,225.5C 166.508,216.845 161.342,207.512 157.5,197.5C 156.453,191.98 155.12,186.646 153.5,181.5C 152.507,170.183 152.34,158.85 153,147.5C 159.76,109.245 181.593,84.2455 218.5,72.5C 222.007,72.6933 225.34,72.0267 228.5,70.5C 229.492,66.2172 229.826,61.8839 229.5,57.5C 230.441,55.2279 231.774,53.2279 233.5,51.5C 242.197,49.9965 250.863,48.9965 259.5,48.5 Z"/></g>
<g><path style="opacity:1" fill="#fdfdfd" d="M 237.5,339.5 C 237.56,340.043 237.893,340.376 238.5,340.5C 238.833,326 239.167,311.5 239.5,297C 239.499,282.151 238.833,267.651 237.5,253.5C 181.931,238.763 156.765,202.763 162,145.5C 169.735,112.429 189.902,90.9286 222.5,81C 227.73,79.4537 233.063,78.6204 238.5,78.5C 238.5,71.8333 238.5,65.1667 238.5,58.5C 248.5,58.5 258.5,58.5 268.5,58.5C 268.5,65.1667 268.5,71.8333 268.5,78.5C 312.512,84.0163 337.846,108.516 344.5,152C 327.208,154.155 309.875,155.989 292.5,157.5C 290.771,142.009 282.771,131.343 268.5,125.5C 268.5,152.167 268.5,178.833 268.5,205.5C 288.645,209.933 307.312,217.767 324.5,229C 344.681,245.998 354.347,267.831 353.5,294.5C 352.391,340.435 330.058,370.601 286.5,385C 280.587,386.677 274.587,387.844 268.5,388.5C 268.5,400.833 268.5,413.167 268.5,425.5C 258.5,425.5 248.5,425.5 238.5,425.5C 238.5,413.5 238.5,401.5 238.5,389.5C 187.465,381.634 159.132,352.134 153.5,301C 171.128,298.596 188.794,296.93 206.5,296C 210.596,315.054 220.93,329.554 237.5,339.5 Z"/></g>
<g><path style="opacity:0.959" fill="#5e5e5e" d="M 278.5,58.5 C 344.602,91.3845 410.602,124.551 476.5,158C 481.045,161.044 484.711,164.877 487.5,169.5C 487.565,169.938 487.399,170.272 487,170.5C 477.242,163.807 466.409,160.974 454.5,162C 414.633,141.9 374.633,122.066 334.5,102.5C 319.465,85.1445 300.465,74.8112 277.5,71.5C 277.182,66.9677 277.515,62.6344 278.5,58.5 Z"/></g>
<g><path style="opacity:0.979" fill="#434242" d="M 334.5,102.5 C 374.633,122.066 414.633,141.9 454.5,162C 466.409,160.974 477.242,163.807 487,170.5C 487.399,170.272 487.565,169.938 487.5,169.5C 501.608,194.123 496.608,213.957 472.5,229C 457.802,235.352 443.469,242.185 429.5,249.5C 426.673,249.584 424.006,250.25 421.5,251.5C 421.818,246.968 421.485,242.634 420.5,238.5C 437.561,230.636 454.561,222.47 471.5,214C 485.074,204.658 487.074,193.325 477.5,180C 468.714,174.098 459.381,173.098 449.5,177C 440.259,181.456 430.925,185.622 421.5,189.5C 421.779,184.405 421.445,179.405 420.5,174.5C 428.119,172.528 435.452,169.695 442.5,166C 409.58,148.373 376.247,131.54 342.5,115.5C 339.841,111.172 337.174,106.838 334.5,102.5 Z"/></g>
<g><path style="opacity:1" fill="#c52a29" d="M 22.5,103.5 C 18.5683,107.411 18.5683,111.244 22.5,115C 66.1933,137.18 109.86,159.346 153.5,181.5C 155.12,186.646 156.453,191.98 157.5,197.5C 116.833,176.833 76.1667,156.167 35.5,135.5C 30.5531,133.027 25.5531,130.527 20.5,128C 14.4602,120.891 13.9602,113.391 19,105.5C 19.8159,104.177 20.9826,103.511 22.5,103.5 Z"/></g>
<g><path style="opacity:1" fill="#616060" d="M 342.5,115.5 C 376.247,131.54 409.58,148.373 442.5,166C 435.452,169.695 428.119,172.528 420.5,174.5C 420.167,174.5 419.833,174.5 419.5,174.5C 396.807,163.153 374.14,151.82 351.5,140.5C 349.885,131.655 346.885,123.322 342.5,115.5 Z"/></g>
<g><path style="opacity:1" fill="#d3d3d3" d="M 237.5,125.5 C 237.56,124.957 237.893,124.624 238.5,124.5C 239.833,148.167 239.833,171.833 238.5,195.5C 237.893,195.376 237.56,195.043 237.5,194.5C 238.833,171.5 238.833,148.5 237.5,125.5 Z"/></g>
<g><path style="opacity:1" fill="#030202" d="M 237.5,125.5 C 238.833,148.5 238.833,171.5 237.5,194.5C 213.018,181.887 206.851,163.22 219,138.5C 223.703,131.946 229.87,127.612 237.5,125.5 Z"/></g>
<g><path style="opacity:1" fill="#f4f3f3" d="M 35.5,135.5 C 76.1667,156.167 116.833,176.833 157.5,197.5C 161.342,207.512 166.508,216.845 173,225.5C 188.226,242.2 206.726,253.867 228.5,260.5C 229.497,268.138 229.831,275.804 229.5,283.5C 163.193,250.013 96.8599,216.513 30.5,183C 28.718,180.757 28.218,178.257 29,175.5C 31.1227,171.632 32.956,167.632 34.5,163.5C 36.5802,154.22 36.9135,144.887 35.5,135.5 Z"/></g>
<g><path style="opacity:1" fill="#3c100d" d="M 228.5,177.5 C 229.495,165.345 229.829,153.011 229.5,140.5C 230.657,152.757 230.823,165.757 230,179.5C 229.283,178.956 228.783,178.289 228.5,177.5 Z"/></g>
<g><path style="opacity:1" fill="#ed4134" d="M 229.5,140.5 C 229.829,153.011 229.495,165.345 228.5,177.5C 221.448,169.364 219.615,160.031 223,149.5C 224.643,146.039 226.81,143.039 229.5,140.5 Z"/></g>
<g><path style="opacity:1" fill="#f24235" d="M 351.5,140.5 C 374.14,151.82 396.807,163.153 419.5,174.5C 416.81,177.365 413.477,179.531 409.5,181C 382.382,192.725 355.382,204.725 328.5,217C 326.866,217.494 325.199,217.66 323.5,217.5C 308.991,209.664 293.824,203.331 278,198.5C 277.333,180.167 277.333,161.833 278,143.5C 281.704,148.942 284.037,154.942 285,161.5C 286.9,164.401 289.566,166.068 293,166.5C 311.876,164.254 330.709,161.754 349.5,159C 351,158.167 352.167,157 353,155.5C 353.818,150.349 353.318,145.349 351.5,140.5 Z"/></g>
<g><path style="opacity:1" fill="#c42a29" d="M 34.5,163.5 C 32.956,167.632 31.1227,171.632 29,175.5C 28.218,178.257 28.718,180.757 30.5,183C 96.8599,216.513 163.193,250.013 229.5,283.5C 229.5,288.167 229.5,292.833 229.5,297.5C 223.675,294.755 218.008,291.755 212.5,288.5C 211.609,287.89 210.609,287.557 209.5,287.5C 204.484,284.326 199.151,281.659 193.5,279.5C 139.388,251.61 85.0549,223.943 30.5,196.5C 19.8105,192.985 14.9771,185.651 16,174.5C 17.1217,172.376 18.6217,170.543 20.5,169C 25.0719,166.866 29.7385,165.033 34.5,163.5 Z"/></g>
<g><path style="opacity:1" fill="#94c4d4" d="M 420.5,238.5 C 399.833,247.5 379.167,256.5 358.5,265.5C 354.76,250.677 347.426,238.011 336.5,227.5C 364.711,214.561 393.044,201.895 421.5,189.5C 430.925,185.622 440.259,181.456 449.5,177C 459.381,173.098 468.714,174.098 477.5,180C 487.074,193.325 485.074,204.658 471.5,214C 454.561,222.47 437.561,230.636 420.5,238.5 Z"/></g>
<g><path style="opacity:1" fill="#c52929" d="M 419.5,174.5 C 419.833,174.5 420.167,174.5 420.5,174.5C 421.445,179.405 421.779,184.405 421.5,189.5C 393.044,201.895 364.711,214.561 336.5,227.5C 332.143,224.136 327.809,220.802 323.5,217.5C 325.199,217.66 326.866,217.494 328.5,217C 355.382,204.725 382.382,192.725 409.5,181C 413.477,179.531 416.81,177.365 419.5,174.5 Z"/></g>
<g><path style="opacity:0.992" fill="#424242" d="M 30.5,196.5 C 85.0549,223.943 139.388,251.61 193.5,279.5C 195.279,281.546 196.946,283.713 198.5,286C 200.134,286.494 201.801,286.66 203.5,286.5C 198.99,287.341 194.324,288.008 189.5,288.5C 189.918,287.778 190.584,287.278 191.5,287C 171.377,277.035 151.377,266.869 131.5,256.5C 131.167,256.667 130.833,256.833 130.5,257C 138.056,266.889 145.222,277.056 152,287.5C 153.257,289.746 155.09,291.079 157.5,291.5C 155.031,292.317 152.365,292.817 149.5,293C 148.627,294.045 147.627,294.878 146.5,295.5C 136.372,279.015 125.372,263.015 113.5,247.5C 100.633,240.4 87.6333,233.9 74.5,228C 101.645,266.479 128.645,304.979 155.5,343.5C 159.687,350.554 164.353,357.221 169.5,363.5C 168.883,363.611 168.383,363.944 168,364.5C 167.53,382.029 176.03,389.863 193.5,388C 195.058,387.79 196.391,387.29 197.5,386.5C 204.653,390.081 211.987,393.081 219.5,395.5C 213.833,396.833 208.167,398.167 202.5,399.5C 184.462,404.985 169.295,400.652 157,386.5C 153.402,380.961 149.569,375.628 145.5,370.5C 119.855,334.197 93.8553,298.197 67.5,262.5C 56.8339,246.511 45.6672,230.844 34,215.5C 30.9179,209.554 29.7513,203.221 30.5,196.5 Z"/></g>
<g><path style="opacity:1" fill="#606060" d="M 146.5,295.5 C 144.494,299.198 143.994,303.198 145,307.5C 147.395,319.848 150.895,331.848 155.5,343.5C 128.645,304.979 101.645,266.479 74.5,228C 87.6333,233.9 100.633,240.4 113.5,247.5C 125.372,263.015 136.372,279.015 146.5,295.5 Z"/></g>
<g><path style="opacity:1" fill="#c22b29" d="M 420.5,238.5 C 421.485,242.634 421.818,246.968 421.5,251.5C 401.505,260.499 381.505,269.499 361.5,278.5C 360.343,274.207 359.343,269.873 358.5,265.5C 379.167,256.5 399.833,247.5 420.5,238.5 Z"/></g>
<g><path style="opacity:0.999" fill="#699e38" d="M 429.5,249.5 C 431.137,251.475 432.804,253.475 434.5,255.5C 410.588,266.36 386.588,277.026 362.5,287.5C 362.492,284.455 362.159,281.455 361.5,278.5C 381.505,269.499 401.505,260.499 421.5,251.5C 424.006,250.25 426.673,249.584 429.5,249.5 Z"/></g>
<g><path style="opacity:1" fill="#d4d4d4" d="M 237.5,253.5 C 238.833,267.651 239.499,282.151 239.5,297C 239.167,311.5 238.833,326 238.5,340.5C 237.893,340.376 237.56,340.043 237.5,339.5C 238.828,310.931 238.828,282.264 237.5,253.5 Z"/></g>
<g><path style="opacity:1" fill="#9ac963" d="M 434.5,255.5 C 439.2,260.199 443.534,265.199 447.5,270.5C 447.489,272.017 446.823,273.184 445.5,274C 418.096,281.047 390.43,286.881 362.5,291.5C 362.5,290.167 362.5,288.833 362.5,287.5C 386.588,277.026 410.588,266.36 434.5,255.5 Z"/></g>
<g><path style="opacity:1" fill="#5f5f5f" d="M 189.5,288.5 C 178.862,289.793 168.196,290.793 157.5,291.5C 155.09,291.079 153.257,289.746 152,287.5C 145.222,277.056 138.056,266.889 130.5,257C 130.833,256.833 131.167,256.667 131.5,256.5C 151.377,266.869 171.377,277.035 191.5,287C 190.584,287.278 189.918,287.778 189.5,288.5 Z"/></g>
<g><path style="opacity:0.998" fill="#05579a" d="M 67.5,262.5 C 93.8553,298.197 119.855,334.197 145.5,370.5C 109.553,352.527 73.5531,334.527 37.5,316.5C 36.7025,316.957 36.3691,317.624 36.5,318.5C 35.7515,317.469 35.0848,316.302 34.5,315C 27.7248,312.534 21.8915,308.7 17,303.5C 15.566,299.594 15.2327,295.594 16,291.5C 16.4238,288.975 17.5905,286.975 19.5,285.5C 18.9712,289.192 19.9712,292.358 22.5,295C 54.5671,310.783 86.4005,326.95 118,343.5C 100.192,317.162 81.6915,291.162 62.5,265.5C 63.9649,264.263 65.6316,263.263 67.5,262.5 Z"/></g>
<g><path style="opacity:1" fill="#060606" d="M 268.5,263.5 C 295.514,270.196 306.347,287.196 301,314.5C 295.855,330.481 285.021,339.815 268.5,342.5C 268.5,316.167 268.5,289.833 268.5,263.5 Z"/></g>
<g><path style="opacity:1" fill="#008fe7" d="M 62.5,265.5 C 81.6915,291.162 100.192,317.162 118,343.5C 86.4005,326.95 54.5671,310.783 22.5,295C 19.9712,292.358 18.9712,289.192 19.5,285.5C 20.343,283.827 21.6763,282.66 23.5,282C 36.5214,276.488 49.5214,270.988 62.5,265.5 Z"/></g>
<g><path style="opacity:0.998" fill="#679d38" d="M 447.5,270.5 C 451.272,274.849 451.438,279.515 448,284.5C 444.901,287.812 441.067,289.479 436.5,289.5C 411.776,294.245 387.109,299.245 362.5,304.5C 362.5,300.167 362.5,295.833 362.5,291.5C 390.43,286.881 418.096,281.047 445.5,274C 446.823,273.184 447.489,272.017 447.5,270.5 Z"/></g>
<g><path style="opacity:1" fill="#96c2d1" d="M 293.5,295.5 C 288.386,298.056 283.053,300.056 277.5,301.5C 277.169,293.14 277.502,284.807 278.5,276.5C 286.126,280.747 291.126,287.08 293.5,295.5 Z"/></g>
<g><path style="opacity:1" fill="#6a9135" d="M 193.5,279.5 C 199.151,281.659 204.484,284.326 209.5,287.5C 207.5,287.167 205.5,286.833 203.5,286.5C 201.801,286.66 200.134,286.494 198.5,286C 196.946,283.713 195.279,281.546 193.5,279.5 Z"/></g>
<g><path style="opacity:1" fill="#b7e2e7" d="M 436.5,289.5 C 434.616,292.603 433.282,295.937 432.5,299.5C 432.407,310.401 434.907,320.735 440,330.5C 440.758,332.769 440.591,334.936 439.5,337C 407.241,344.152 374.908,350.985 342.5,357.5C 353.518,341.444 360.184,323.777 362.5,304.5C 387.109,299.245 411.776,294.245 436.5,289.5 Z"/></g>
<g><path style="opacity:1" fill="#679937" d="M 212.5,288.5 C 218.008,291.755 223.675,294.755 229.5,297.5C 229.5,300.5 229.5,303.5 229.5,306.5C 225.412,304.094 221.412,302.427 217.5,301.5C 215.992,297.159 214.325,292.826 212.5,288.5 Z"/></g>
<g><path style="opacity:1" fill="#bf2928" d="M 293.5,295.5 C 294.778,300.135 294.778,304.802 293.5,309.5C 288.542,312.309 283.209,313.976 277.5,314.5C 277.5,310.167 277.5,305.833 277.5,301.5C 283.053,300.056 288.386,298.056 293.5,295.5 Z"/></g>
<g><path style="opacity:0.999" fill="#679e3a" d="M 432.5,299.5 C 438.069,307.627 443.402,315.961 448.5,324.5C 450.775,328.615 453.275,332.615 456,336.5C 456.495,338.473 456.662,340.473 456.5,342.5C 456.262,345.148 454.928,346.982 452.5,348C 442.117,349.976 431.784,352.143 421.5,354.5C 390.114,360.577 358.781,366.911 327.5,373.5C 333.205,368.796 338.205,363.463 342.5,357.5C 374.908,350.985 407.241,344.152 439.5,337C 440.591,334.936 440.758,332.769 440,330.5C 434.907,320.735 432.407,310.401 432.5,299.5 Z"/></g>
<g><path style="opacity:1" fill="#96c460" d="M 229.5,306.5 C 229.666,311.511 229.499,316.511 229,321.5C 223.36,315.889 219.527,309.222 217.5,301.5C 221.412,302.427 225.412,304.094 229.5,306.5 Z"/></g>
<g><path style="opacity:1" fill="#679836" d="M 293.5,309.5 C 292.724,313.052 291.391,316.386 289.5,319.5C 285.476,320.038 281.476,320.705 277.5,321.5C 277.5,319.167 277.5,316.833 277.5,314.5C 283.209,313.976 288.542,312.309 293.5,309.5 Z"/></g>
<g><path style="opacity:1" fill="#f3f3f4" d="M 145.5,370.5 C 149.569,375.628 153.402,380.961 157,386.5C 169.295,400.652 184.462,404.985 202.5,399.5C 211.335,404.418 220.335,409.085 229.5,413.5C 229.229,418.913 229.729,424.246 231,429.5C 232.167,430.667 233.333,431.833 234.5,433C 246.104,434.412 257.771,434.912 269.5,434.5C 279.107,442.496 281.94,452.496 278,464.5C 273.309,472.766 266.143,476.766 256.5,476.5C 181.731,439.282 107.065,401.782 32.5,364C 30.3234,362.503 28.99,360.503 28.5,358C 30.5928,353.226 32.5928,348.392 34.5,343.5C 36.1196,335.258 36.7862,326.924 36.5,318.5C 36.3691,317.624 36.7025,316.957 37.5,316.5C 73.5531,334.527 109.553,352.527 145.5,370.5 Z"/></g>
<g><path style="opacity:1" fill="#add9de" d="M 289.5,319.5 C 286.188,323.479 282.521,327.146 278.5,330.5C 277.516,327.572 277.183,324.572 277.5,321.5C 281.476,320.705 285.476,320.038 289.5,319.5 Z"/></g>
<g><path style="opacity:0.905" fill="#5e5e5d" d="M 448.5,324.5 C 460.579,329.371 471.912,335.538 482.5,343C 484.054,345.287 485.721,347.454 487.5,349.5C 487.565,349.938 487.399,350.272 487,350.5C 478.075,342.987 467.908,340.32 456.5,342.5C 456.662,340.473 456.495,338.473 456,336.5C 453.275,332.615 450.775,328.615 448.5,324.5 Z"/></g>
<g><path style="opacity:0.966" fill="#414242" d="M 487.5,349.5 C 501.971,375.307 496.304,395.474 470.5,410C 454.145,417.179 437.812,424.345 421.5,431.5C 421.5,426.833 421.5,422.167 421.5,417.5C 438.841,410 455.841,401.833 472.5,393C 484.955,383.556 486.621,372.556 477.5,360C 469.494,354.498 460.828,353.165 451.5,356C 441.429,360.41 431.429,364.91 421.5,369.5C 421.5,364.5 421.5,359.5 421.5,354.5C 431.784,352.143 442.117,349.976 452.5,348C 454.928,346.982 456.262,345.148 456.5,342.5C 467.908,340.32 478.075,342.987 487,350.5C 487.399,350.272 487.565,349.938 487.5,349.5 Z"/></g>
<g><path style="opacity:0.989" fill="#055698" d="M 34.5,343.5 C 32.5928,348.392 30.5928,353.226 28.5,358C 28.99,360.503 30.3234,362.503 32.5,364C 107.065,401.782 181.731,439.282 256.5,476.5C 265.589,482.188 275.256,483.021 285.5,479C 330.71,458.228 376.043,437.728 421.5,417.5C 421.5,422.167 421.5,426.833 421.5,431.5C 377.193,451.652 332.859,471.819 288.5,492C 279.271,496.058 269.938,496.391 260.5,493C 181.344,453.256 102.344,413.256 23.5,373C 14.2225,365.824 13.2225,357.824 20.5,349C 24.9138,346.474 29.5805,344.641 34.5,343.5 Z"/></g>
<g><path style="opacity:1" fill="#93c5d5" d="M 421.5,417.5 C 376.043,437.728 330.71,458.228 285.5,479C 275.256,483.021 265.589,482.188 256.5,476.5C 266.143,476.766 273.309,472.766 278,464.5C 281.94,452.496 279.107,442.496 269.5,434.5C 271.882,433.649 273.882,432.316 275.5,430.5C 282.184,430.551 288.517,429.051 294.5,426C 336.733,406.87 379.066,388.037 421.5,369.5C 431.429,364.91 441.429,360.41 451.5,356C 460.828,353.165 469.494,354.498 477.5,360C 486.621,372.556 484.955,383.556 472.5,393C 455.841,401.833 438.841,410 421.5,417.5 Z"/></g>
<g><path style="opacity:1" fill="#03589b" d="M 421.5,354.5 C 421.5,359.5 421.5,364.5 421.5,369.5C 379.066,388.037 336.733,406.87 294.5,426C 288.517,429.051 282.184,430.551 275.5,430.5C 277.215,426.034 277.882,421.367 277.5,416.5C 282.761,416.541 287.761,415.374 292.5,413C 324.049,398.725 355.716,384.725 387.5,371C 360.905,376.219 334.238,381.385 307.5,386.5C 314.471,382.678 321.138,378.345 327.5,373.5C 358.781,366.911 390.114,360.577 421.5,354.5 Z"/></g>
<g><path style="opacity:1" fill="#b2dbe1" d="M 169.5,363.5 C 177.014,373.344 186.347,381.011 197.5,386.5C 196.391,387.29 195.058,387.79 193.5,388C 176.03,389.863 167.53,382.029 168,364.5C 168.383,363.944 168.883,363.611 169.5,363.5 Z"/></g>
<g><path style="opacity:1" fill="#008fe7" d="M 277.5,416.5 C 277.5,409.5 277.5,402.5 277.5,395.5C 287.857,393.715 297.857,390.715 307.5,386.5C 334.238,381.385 360.905,376.219 387.5,371C 355.716,384.725 324.049,398.725 292.5,413C 287.761,415.374 282.761,416.541 277.5,416.5 Z"/></g>
<g><path style="opacity:1" fill="#06579a" d="M 219.5,395.5 C 222.86,395.616 226.193,395.949 229.5,396.5C 229.5,402.167 229.5,407.833 229.5,413.5C 220.335,409.085 211.335,404.418 202.5,399.5C 208.167,398.167 213.833,396.833 219.5,395.5 Z"/></g>
</svg>
